#N canvas 872 30 1022 852 12;
#X obj 355 433 pix_texture;
#X obj 59 82 gemwin;
#X msg 59 21 create \, 1;
#X msg 73 51 destroy;
#X obj 269 71 gemhead 51;
#X obj 269 96 t a b;
#X obj 67 169 gemhead 50;
#X obj 67 195 pix_video;
#X obj 67 221 pix_texture;
#X obj 68 325 translateXYZ;
#X floatatom 122 297 5 0 0 0 - - -;
#X msg 269 367 set 45;
#X msg 269 341 set 55;
#X obj 269 390 gemhead 55;
#X obj 346 522 pix_texture;
#X obj 346 496 translateXYZ;
#X obj 301 146 spigot;
#X msg 420 167 \$1 0;
#X floatatom 420 145 5 0 0 0 - - -;
#X obj 355 383 pix_contrast;
#X floatatom 395 354 5 0 0 0 - - -;
#X floatatom 462 194 5 0 0 0 - - -;
#X obj 476 225 / 100;
#X obj 383 40 t b b;
#X obj 270 21 metro 500;
#X obj 256 0 tgl 15 0 empty empty empty 17 7 0 10 -262144 -1 -1 1 1
;
#X obj 422 78 delay 200;
#X msg 422 110 0;
#X msg 352 80 1;
#X floatatom 467 13 5 0 0 0 - - -;
#X obj 478 501 spigot;
#X obj 341 110 t a a;
#X floatatom 353 3 5 0 0 0 - - -;
#X obj 158 410 scaleXYZ;
#X floatatom 187 374 5 0 0 0 - - -;
#X obj 67 291 scaleXYZ;
#X floatatom 90 246 5 0 0 0 - - -;
#X obj 68 352 rectangle 6.4 4.8;
#X obj 367 586 rectangle 6.4 4.8;
#X obj 511 339 alpha;
#X floatatom 494 284 5 0 0 0 - - -;
#X obj 565 313 tgl 15 0 empty empty empty 17 7 0 10 -262144 -1 -1 0
1;
#X obj 297 249 separator;
#X obj 271 190 fux_glitch 0 0 800 600;
#X obj 527 452 tgl 15 0 empty empty empty 17 7 0 10 -262144 -1 -1 1
1;
#X msg 750 300 bang;
#X msg 783 325 info;
#X floatatom 750 407 5 0 0 3 z - -;
#X floatatom 786 407 5 0 0 3 y - -;
#X text 820 325 output info on right outlet;
#X obj 677 325 metro 250;
#X obj 677 306 tgl 15 0 empty empty empty 0 -6 0 10 -204786 -1 -1 0
1;
#X text 787 298 output sensor values;
#X obj 750 353 apple/sudden_motion_sensor;
#X obj 903 405 pddp/print;
#X obj 903 381 route sensor;
#X obj 750 381 unpack 0 0 0;
#X floatatom 823 407 5 0 0 3 z - -;
#X obj 695 554 *;
#X obj 716 508 * 20;
#X floatatom 765 463 5 0 0 0 - - -;
#X obj 682 423 abs;
#X msg 166 236;
#X floatatom 173 106 5 0 0 0 - - -;
#X floatatom 167 192 5 0 0 0 - - -;
#X msg 140 20 dimen 800 600;
#X obj 714 462 > 2;
#X msg 117 135 dialog;
#X obj 151 823 text2d;
#X floatatom 249 687 5 0 0 0 - - -;
#X obj 145 757 translateXYZ;
#X obj 5 724 separator;
#X obj 2 799 text2d;
#X obj 13 562 gemhead;
#X obj 15 620 translateXYZ;
#X obj 152 696 separator;
#X obj 29 769 translateXYZ;
#X floatatom 108 591 5 0 0 0 - - -;
#X floatatom 202 640 5 0 0 0 - - -;
#X msg 100 795 text GLI.TC/H;
#X floatatom 172 656 5 0 0 0 - - -;
#X floatatom 38 500 5 0 0 0 - - -;
#X floatatom 84 498 5 0 0 0 - - -;
#X obj 375 614 gemhead;
#X obj 388 705 translateXYZ;
#X msg 3 665 text http://gli.tc/h;
#X obj 403 745 text2d;
#X msg 527 685 text Chicago_USA: Nov 4-6 2011;
#X floatatom 407 676 5 0 0 0 - - -;
#X floatatom 449 675 5 0 0 0 - - -;
#X obj 485 752 translateXYZ;
#X obj 500 792 text2d;
#X floatatom 504 723 5 0 0 0 - - -;
#X floatatom 546 722 5 0 0 0 - - -;
#X obj 593 777 translateXYZ;
#X obj 608 817 text2d;
#X floatatom 612 748 5 0 0 0 - - -;
#X floatatom 654 747 5 0 0 0 - - -;
#X obj 371 652 separator;
#X obj 560 634 separator;
#X obj 460 646 separator;
#X msg 649 632 text Amsterdam_NL: Nov 11-12 2011 \;;
#X msg 612 716 text Birmingham_UK: Nov 19 2011 \;;
#X connect 0 1 14 1;
#X connect 2 0 1 0;
#X connect 3 0 1 0;
#X connect 4 0 5 0;
#X connect 5 0 43 0;
#X connect 5 1 16 0;
#X connect 6 0 7 0;
#X connect 7 0 8 0;
#X connect 8 0 35 0;
#X connect 9 0 37 0;
#X connect 10 0 9 2;
#X connect 11 0 13 0;
#X connect 12 0 13 0;
#X connect 13 0 33 0;
#X connect 14 0 30 0;
#X connect 15 0 14 0;
#X connect 16 0 43 0;
#X connect 17 0 43 3;
#X connect 18 0 17 0;
#X connect 19 0 0 0;
#X connect 20 0 19 1;
#X connect 21 0 22 0;
#X connect 23 0 28 0;
#X connect 23 1 26 0;
#X connect 24 0 23 0;
#X connect 25 0 24 0;
#X connect 26 0 27 0;
#X connect 27 0 31 0;
#X connect 28 0 31 0;
#X connect 29 0 26 1;
#X connect 30 0 38 0;
#X connect 31 0 16 1;
#X connect 32 0 24 1;
#X connect 33 0 15 0;
#X connect 34 0 33 1;
#X connect 34 0 33 2;
#X connect 35 0 9 0;
#X connect 36 0 35 1;
#X connect 36 0 35 2;
#X connect 39 0 19 0;
#X connect 40 0 39 1;
#X connect 41 0 39 1;
#X connect 42 0 19 0;
#X connect 43 0 42 0;
#X connect 43 0 39 0;
#X connect 44 0 30 1;
#X connect 45 0 53 0;
#X connect 46 0 53 0;
#X connect 47 0 61 0;
#X connect 50 0 53 0;
#X connect 51 0 50 0;
#X connect 53 0 56 0;
#X connect 53 1 55 0;
#X connect 55 0 54 0;
#X connect 56 0 47 0;
#X connect 56 1 48 0;
#X connect 56 2 57 0;
#X connect 58 0 18 0;
#X connect 59 0 58 1;
#X connect 60 0 59 1;
#X connect 61 0 60 0;
#X connect 61 0 66 0;
#X connect 62 0 9 1;
#X connect 64 0 9 1;
#X connect 65 0 1 0;
#X connect 66 0 58 0;
#X connect 67 0 7 0;
#X connect 69 0 68 1;
#X connect 69 0 72 1;
#X connect 70 0 68 0;
#X connect 71 0 76 0;
#X connect 73 0 74 0;
#X connect 74 0 71 0;
#X connect 74 0 75 0;
#X connect 75 0 70 0;
#X connect 76 0 72 0;
#X connect 77 0 76 2;
#X connect 78 0 70 2;
#X connect 79 0 68 0;
#X connect 80 0 70 1;
#X connect 81 0 74 1;
#X connect 82 0 74 2;
#X connect 83 0 98 0;
#X connect 83 0 100 0;
#X connect 83 0 99 0;
#X connect 84 0 86 0;
#X connect 85 0 72 0;
#X connect 87 0 86 0;
#X connect 88 0 84 1;
#X connect 89 0 84 2;
#X connect 90 0 91 0;
#X connect 92 0 90 1;
#X connect 93 0 90 2;
#X connect 94 0 95 0;
#X connect 96 0 94 1;
#X connect 97 0 94 2;
#X connect 98 0 84 0;
#X connect 99 0 94 0;
#X connect 100 0 90 0;
#X connect 101 0 91 0;
#X connect 102 0 95 0;
